<svg aria-hidden="true" style="position:absolute;width:0;height:0;overflow:hidden" xmlns="http://www.w3.org/2000/svg"><defs><symbol id="facebook" viewBox="0 0 32 32"><path d="M31.5 16.343c0-8.563-6.938-15.5-15.5-15.5S.5 7.781.5 16.343c0 7.75 5.625 14.188 13.063 15.312V20.843H9.625v-4.5h3.938v-3.375c0-3.875 2.313-6.063 5.812-6.063 1.75 0 3.5.313 3.5.313v3.813h-1.937c-1.938 0-2.562 1.187-2.562 2.438v2.875h4.313l-.688 4.5h-3.625v10.812c7.437-1.125 13.125-7.562 13.125-15.312z"/></symbol><symbol id="linkindin" viewBox="0 0 32 32"><path d="M7.25 32V10.901H.687V32H7.25zM3.933 8.079c2.117 0 3.81-1.764 3.81-3.881 0-2.046-1.694-3.74-3.81-3.74-2.046 0-3.74 1.694-3.74 3.74 0 2.117 1.694 3.881 3.74 3.881zM31.736 32h.071V20.427c0-5.645-1.27-10.02-7.903-10.02-3.175 0-5.292 1.764-6.21 3.387h-.07v-2.893h-6.28V32h6.562V21.556c0-2.752.494-5.363 3.881-5.363s3.458 3.105 3.458 5.575V32h6.492z"/></symbol><symbol id="twitter" viewBox="0 0 37 32"><path d="M33.469 8.283c1.458-1.094 2.771-2.406 3.792-3.938a14.363 14.363 0 0 1-4.375 1.167c1.604-.948 2.771-2.406 3.354-4.229a16.177 16.177 0 0 1-4.812 1.896A7.657 7.657 0 0 0 25.813.773a7.655 7.655 0 0 0-7.656 7.656c0 .583.073 1.167.219 1.75A22.215 22.215 0 0 1 2.553 2.158c-.656 1.094-1.021 2.406-1.021 3.865a7.536 7.536 0 0 0 3.427 6.344c-1.24-.073-2.479-.365-3.5-.948v.073c0 3.719 2.625 6.781 6.125 7.511-.583.146-1.313.292-1.969.292-.51 0-.948-.073-1.458-.146.948 3.063 3.792 5.25 7.146 5.323-2.625 2.042-5.906 3.281-9.479 3.281-.656 0-1.24-.073-1.823-.146 3.354 2.187 7.365 3.427 11.74 3.427 14.073 0 21.729-11.594 21.729-21.729V8.284z"/></symbol><symbol id="youtube" viewBox="0 0 45 32"><path d="M43.664 5.831c-.486-1.944-2.025-3.484-3.889-3.97C36.291.889 22.518.889 22.518.889s-13.854 0-17.338.972c-1.863.486-3.403 2.025-3.889 3.97C.319 9.234.319 16.526.319 16.526s0 7.211.972 10.694c.486 1.944 2.025 3.403 3.889 3.889C8.664 32 22.518 32 22.518 32s13.773 0 17.257-.891c1.863-.486 3.403-1.944 3.889-3.889.972-3.484.972-10.694.972-10.694s0-7.292-.972-10.694zM17.982 23.088V9.963l11.505 6.563-11.505 6.563z"/></symbol><symbol id="logo" width="40" height="31" viewBox="0 0 40 31" xmlns="http://www.w3.org/2000/svg">
<path d="M37.0025 0.190915C33.2628 0.403512 25.8298 1.17734 21.2412 3.99101C20.9245 4.18515 20.745 4.53037 20.745 4.89131V29.7652C20.745 30.5548 21.6069 31.0538 22.3337 30.6874C27.0547 28.3071 33.8824 27.6577 37.2584 27.48C38.411 27.4191 39.307 26.4936 39.307 25.3841V2.28955C39.3077 1.0789 38.2595 0.119821 37.0025 0.190915ZM18.0658 3.99101C13.4779 1.17734 6.04492 0.404196 2.30523 0.190915C1.04821 0.119821 0 1.0789 0 2.28955V25.3848C0 26.4949 0.896024 27.4205 2.04864 27.4807C5.42596 27.6584 12.257 28.3085 16.9781 30.6901C17.7028 31.0559 18.562 30.5575 18.562 29.77V4.879C18.562 4.51738 18.3832 4.18584 18.0658 3.99101Z" />
</symbol><symbol id="icon-arrow-right" viewBox="0 0 16 32">
<path fill="#fff" style="fill: var(--color1, #fff)" d="M14.019 17.062l-8.5 8.5c-0.588 0.588-1.538 0.588-2.119 0l-1.413-1.412c-0.587-0.588-0.587-1.538 0-2.119l6.025-6.025-6.025-6.025c-0.587-0.588-0.587-1.537 0-2.119l1.406-1.425c0.587-0.588 1.537-0.588 2.119 0l8.5 8.5c0.594 0.588 0.594 1.538 0.006 2.125z"></path>
</symbol><symbol id="icon-book" viewBox="0 0 32 32">
<path fill="#fff" style="fill: var(--color1, #fff)" d="M22 6c0-3.314-2.686-6-6-6s-6 2.686-6 6c0 3.314 2.686 6 6 6s6-2.686 6-6zM14.599 15.069c-3.708-2.27-9.714-2.894-12.737-3.066-1.016-0.057-1.863 0.716-1.863 1.693v13.925c0 0.896 0.724 1.643 1.656 1.691 2.729 0.143 8.249 0.667 12.065 2.589 0.586 0.295 1.28-0.107 1.28-0.742v-15.374c-0.001-0.292-0.145-0.559-0.401-0.716zM30.137 12.003c-3.022 0.171-9.029 0.796-12.736 3.066-0.256 0.157-0.401 0.435-0.401 0.727v15.362c0 0.637 0.696 1.039 1.284 0.744 3.815-1.92 9.333-2.444 12.061-2.588 0.931-0.049 1.656-0.796 1.656-1.691v-13.926c-0.001-0.977-0.848-1.751-1.863-1.693z"></path>
</symbol>
<symbol id="icon-pencil" viewBox="0 0 32 32">
<path fill="#fff" style="fill: var(--color1, #fff)" d="M31.119 8.881l-2.881 2.881c-0.294 0.294-0.769 0.294-1.063 0l-6.938-6.937c-0.294-0.294-0.294-0.769 0-1.063l2.881-2.881c1.169-1.169 3.069-1.169 4.244 0l3.756 3.756c1.175 1.169 1.175 3.069 0 4.244zM17.762 6.237l-16.413 16.412-1.325 7.594c-0.181 1.025 0.713 1.913 1.738 1.738l7.594-1.331 16.412-16.412c0.294-0.294 0.294-0.769 0-1.063l-6.938-6.937c-0.3-0.294-0.775-0.294-1.069 0zM7.756 21.244c-0.344-0.344-0.344-0.894 0-1.238l9.625-9.625c0.344-0.344 0.894-0.344 1.238 0s0.344 0.894 0 1.238l-9.625 9.625c-0.344 0.344-0.894 0.344-1.237 0zM5.5 26.5h3v2.269l-4.031 0.706-1.944-1.944 0.706-4.031h2.269v3z"></path>
</symbol>
<symbol id="icon-university" viewBox="0 0 32 32">
<path fill="#fff" style="fill: var(--color1, #fff)" d="M31 8v1c0 0.133-0.053 0.26-0.146 0.354s-0.221 0.146-0.354 0.146h-1.5v0.75c0 0.414-0.336 0.75-0.75 0.75h-24.5c-0.414 0-0.75-0.336-0.75-0.75v-0.75h-1.5c-0.133 0-0.26-0.053-0.354-0.146s-0.146-0.221-0.146-0.354v-1c0-0.099 0.029-0.196 0.084-0.278s0.133-0.146 0.224-0.184l14.5-5.5c0.122-0.051 0.26-0.051 0.382 0l14.5 5.5c0.091 0.038 0.169 0.102 0.224 0.184s0.084 0.179 0.084 0.278zM29.5 27h-27c-0.828 0-1.5 0.672-1.5 1.5v1c0 0.133 0.053 0.26 0.146 0.354s0.221 0.146 0.354 0.146h29c0.133 0 0.26-0.053 0.354-0.146s0.146-0.221 0.146-0.354v-1c0-0.828-0.672-1.5-1.5-1.5zM6 12v12h-2.25c-0.414 0-0.75 0.336-0.75 0.75v1.25h26v-1.25c0-0.414-0.336-0.75-0.75-0.75h-2.25v-12h-4v12h-4v-12h-4v12h-4v-12h-4z"></path>
</symbol>
</defs></svg>